# xmcd
#
# Track frame offsets:
#	150
#	19677
#	31930
#	53308
#	76773
#	93518
#	110160
#	127896
#
# Disc length: 2090 seconds
#
# Revision: 1
# Processed by: cddbd v1.4PL0 Copyright (c) Steve Scherf et al.
# Submitted via: audiograbber 1.80
#
DISCID=52082808
DTITLE=Lara Price - Faces of the Blues
DYEAR=1900
DGENRE=
TTITLE0=Faces of the blues
TTITLE1=Woman down
TTITLE2=If you love me
TTITLE3=Cut you loose
TTITLE4=I wanna man
TTITLE5=Rock me baby
TTITLE6=Can't quit the blues
TTITLE7=Where, When, Why?
EXTD=
EXTT0=
EXTT1=
EXTT2=
EXTT3=
EXTT4=
EXTT5=
EXTT6=
EXTT7=
PLAYORDER=
